<?xml version="1.0" encoding="UTF-8" standalone="no"?>
<!-- Created with Inkscape (http://www.inkscape.org/) -->

<svg
   xmlns:dc="http://purl.org/dc/elements/1.1/"
   xmlns:cc="http://creativecommons.org/ns#"
   xmlns:rdf="http://www.w3.org/1999/02/22-rdf-syntax-ns#"
   xmlns:svg="http://www.w3.org/2000/svg"
   xmlns="http://www.w3.org/2000/svg"
   xmlns:sodipodi="http://sodipodi.sourceforge.net/DTD/sodipodi-0.dtd"
   xmlns:inkscape="http://www.inkscape.org/namespaces/inkscape"
   width="100mm"
   height="100mm"
   viewBox="0 0 100 100"
   version="1.1"
   id="svg8"
   inkscape:version="0.92.3 (2405546, 2018-03-11)"
   sodipodi:docname="arrow_rtl.svg">
  <defs
     id="defs2" />
  <sodipodi:namedview
     id="base"
     pagecolor="#ffffff"
     bordercolor="#666666"
     borderopacity="1.0"
     inkscape:pageopacity="0.0"
     inkscape:pageshadow="2"
     inkscape:zoom="2.0822708"
     inkscape:cx="152.95801"
     inkscape:cy="188.97638"
     inkscape:document-units="mm"
     inkscape:current-layer="layer1"
     showgrid="false"
     inkscape:window-width="1853"
     inkscape:window-height="1017"
     inkscape:window-x="67"
     inkscape:window-y="37"
     inkscape:window-maximized="1" />
  <metadata
     id="metadata5">
    <rdf:RDF>
      <cc:Work
         rdf:about="">
        <dc:format>image/svg+xml</dc:format>
        <dc:type
           rdf:resource="http://purl.org/dc/dcmitype/StillImage" />
        <dc:title />
      </cc:Work>
    </rdf:RDF>
  </metadata>
  <g
     inkscape:label="Layer 1"
     inkscape:groupmode="layer"
     id="layer1"
     transform="translate(0,-197)">
    <path
       style="opacity:0.86000001;fill:#eeffff;fill-opacity:1;stroke-width:0.26458332"
       d="M 37.742188,213.95899 C 26.728516,224.97266 15.714844,235.98633 4.701173,247 c 12.319661,12.31966 24.639323,24.63933 36.958984,36.95899 -0.731146,-7.88346 -1.46224,-15.76693 -2.193359,-23.65039 18.610677,0 37.221354,0 55.832029,0 0,-8.8724 0,-17.74479 0,-26.61719 -18.610675,0 -37.221352,0 -55.832029,0 0.731119,-7.88346 1.462213,-15.76693 2.193359,-23.65039 -1.30599,1.30599 -2.611979,2.61197 -3.917969,3.91797 z"
       id="path888"
       inkscape:connector-curvature="0" />
    <path
       style="opacity:0.86000001;stroke-width:0.26458332"
       d="M 38.742288,215.37351 7.1157967,247 38.742288,278.62649 36.856616,258.30887 H 92.884203 V 235.69113 H 36.856616 Z"
       id="rect10"
       inkscape:connector-curvature="0" />
  </g>
</svg>
